<?xml version="1.0" encoding="utf-8"?>
<!-- Generator: Adobe Illustrator 24.2.1, SVG Export Plug-In . SVG Version: 6.00 Build 0)  -->
<svg version="1.1" id="Layer_1" xmlns="http://www.w3.org/2000/svg" xmlns:xlink="http://www.w3.org/1999/xlink" x="0px" y="0px"
	 viewBox="0 0 248 243" style="enable-background:new 0 0 248 243;" xml:space="preserve">
<style type="text/css">
	.st0{display:none;fill:#FFFFFF;}
</style>
<g>
	<rect x="26" y="21" class="st0" width="200" height="200"/>
	<rect x="26" y="21" width="8" height="8"/>
	<rect x="34" y="21" width="8" height="8"/>
	<rect x="42" y="21" width="8" height="8"/>
	<rect x="50" y="21" width="8" height="8"/>
	<rect x="58" y="21" width="8" height="8"/>
	<rect x="66" y="21" width="8" height="8"/>
	<rect x="74" y="21" width="8" height="8"/>
	<rect x="90" y="21" width="8" height="8"/>
	<rect x="114" y="21" width="8" height="8"/>
	<rect x="122" y="21" width="8" height="8"/>
	<rect x="138" y="21" width="8" height="8"/>
	<rect x="154" y="21" width="8" height="8"/>
	<rect x="170" y="21" width="8" height="8"/>
	<rect x="178" y="21" width="8" height="8"/>
	<rect x="186" y="21" width="8" height="8"/>
	<rect x="194" y="21" width="8" height="8"/>
	<rect x="202" y="21" width="8" height="8"/>
	<rect x="210" y="21" width="8" height="8"/>
	<rect x="218" y="21" width="8" height="8"/>
	<rect x="26" y="29" width="8" height="8"/>
	<rect x="74" y="29" width="8" height="8"/>
	<rect x="98" y="29" width="8" height="8"/>
	<rect x="106" y="29" width="8" height="8"/>
	<rect x="154" y="29" width="8" height="8"/>
	<rect x="170" y="29" width="8" height="8"/>
	<rect x="218" y="29" width="8" height="8"/>
	<rect x="26" y="37" width="8" height="8"/>
	<rect x="42" y="37" width="8" height="8"/>
	<rect x="50" y="37" width="8" height="8"/>
	<rect x="58" y="37" width="8" height="8"/>
	<rect x="74" y="37" width="8" height="8"/>
	<rect x="106" y="37" width="8" height="8"/>
	<rect x="122" y="37" width="8" height="8"/>
	<rect x="130" y="37" width="8" height="8"/>
	<rect x="146" y="37" width="8" height="8"/>
	<rect x="170" y="37" width="8" height="8"/>
	<rect x="186" y="37" width="8" height="8"/>
	<rect x="194" y="37" width="8" height="8"/>
	<rect x="202" y="37" width="8" height="8"/>
	<rect x="218" y="37" width="8" height="8"/>
	<rect x="26" y="45" width="8" height="8"/>
	<rect x="42" y="45" width="8" height="8"/>
	<rect x="50" y="45" width="8" height="8"/>
	<rect x="58" y="45" width="8" height="8"/>
	<rect x="74" y="45" width="8" height="8"/>
	<rect x="122" y="45" width="8" height="8"/>
	<rect x="130" y="45" width="8" height="8"/>
	<rect x="146" y="45" width="8" height="8"/>
	<rect x="154" y="45" width="8" height="8"/>
	<rect x="170" y="45" width="8" height="8"/>
	<rect x="186" y="45" width="8" height="8"/>
	<rect x="194" y="45" width="8" height="8"/>
	<rect x="202" y="45" width="8" height="8"/>
	<rect x="218" y="45" width="8" height="8"/>
	<rect x="26" y="53" width="8" height="8"/>
	<rect x="42" y="53" width="8" height="8"/>
	<rect x="50" y="53" width="8" height="8"/>
	<rect x="58" y="53" width="8" height="8"/>
	<rect x="74" y="53" width="8" height="8"/>
	<rect x="98" y="53" width="8" height="8"/>
	<rect x="114" y="53" width="8" height="8"/>
	<rect x="138" y="53" width="8" height="8"/>
	<rect x="154" y="53" width="8" height="8"/>
	<rect x="170" y="53" width="8" height="8"/>
	<rect x="186" y="53" width="8" height="8"/>
	<rect x="194" y="53" width="8" height="8"/>
	<rect x="202" y="53" width="8" height="8"/>
	<rect x="218" y="53" width="8" height="8"/>
	<rect x="26" y="61" width="8" height="8"/>
	<rect x="74" y="61" width="8" height="8"/>
	<rect x="106" y="61" width="8" height="8"/>
	<rect x="122" y="61" width="8" height="8"/>
	<rect x="130" y="61" width="8" height="8"/>
	<rect x="138" y="61" width="8" height="8"/>
	<rect x="170" y="61" width="8" height="8"/>
	<rect x="218" y="61" width="8" height="8"/>
	<rect x="26" y="69" width="8" height="8"/>
	<rect x="34" y="69" width="8" height="8"/>
	<rect x="42" y="69" width="8" height="8"/>
	<rect x="50" y="69" width="8" height="8"/>
	<rect x="58" y="69" width="8" height="8"/>
	<rect x="66" y="69" width="8" height="8"/>
	<rect x="74" y="69" width="8" height="8"/>
	<rect x="90" y="69" width="8" height="8"/>
	<rect x="106" y="69" width="8" height="8"/>
	<rect x="122" y="69" width="8" height="8"/>
	<rect x="138" y="69" width="8" height="8"/>
	<rect x="154" y="69" width="8" height="8"/>
	<rect x="170" y="69" width="8" height="8"/>
	<rect x="178" y="69" width="8" height="8"/>
	<rect x="186" y="69" width="8" height="8"/>
	<rect x="194" y="69" width="8" height="8"/>
	<rect x="202" y="69" width="8" height="8"/>
	<rect x="210" y="69" width="8" height="8"/>
	<rect x="218" y="69" width="8" height="8"/>
	<rect x="90" y="77" width="8" height="8"/>
	<rect x="106" y="77" width="8" height="8"/>
	<rect x="114" y="77" width="8" height="8"/>
	<rect x="130" y="77" width="8" height="8"/>
	<rect x="154" y="77" width="8" height="8"/>
	<rect x="26" y="85" width="8" height="8"/>
	<rect x="34" y="85" width="8" height="8"/>
	<rect x="50" y="85" width="8" height="8"/>
	<rect x="58" y="85" width="8" height="8"/>
	<rect x="74" y="85" width="8" height="8"/>
	<rect x="98" y="85" width="8" height="8"/>
	<rect x="106" y="85" width="8" height="8"/>
	<rect x="114" y="85" width="8" height="8"/>
	<rect x="138" y="85" width="8" height="8"/>
	<rect x="146" y="85" width="8" height="8"/>
	<rect x="154" y="85" width="8" height="8"/>
	<rect x="170" y="85" width="8" height="8"/>
	<rect x="218" y="85" width="8" height="8"/>
	<rect x="34" y="93" width="8" height="8"/>
	<rect x="66" y="93" width="8" height="8"/>
	<rect x="82" y="93" width="8" height="8"/>
	<rect x="98" y="93" width="8" height="8"/>
	<rect x="122" y="93" width="8" height="8"/>
	<rect x="130" y="93" width="8" height="8"/>
	<rect x="138" y="93" width="8" height="8"/>
	<rect x="146" y="93" width="8" height="8"/>
	<rect x="162" y="93" width="8" height="8"/>
	<rect x="178" y="93" width="8" height="8"/>
	<rect x="186" y="93" width="8" height="8"/>
	<rect x="194" y="93" width="8" height="8"/>
	<rect x="202" y="93" width="8" height="8"/>
	<rect x="210" y="93" width="8" height="8"/>
	<rect x="42" y="101" width="8" height="8"/>
	<rect x="50" y="101" width="8" height="8"/>
	<rect x="66" y="101" width="8" height="8"/>
	<rect x="74" y="101" width="8" height="8"/>
	<rect x="82" y="101" width="8" height="8"/>
	<rect x="106" y="101" width="8" height="8"/>
	<rect x="114" y="101" width="8" height="8"/>
	<rect x="130" y="101" width="8" height="8"/>
	<rect x="146" y="101" width="8" height="8"/>
	<rect x="170" y="101" width="8" height="8"/>
	<rect x="178" y="101" width="8" height="8"/>
	<rect x="194" y="101" width="8" height="8"/>
	<rect x="218" y="101" width="8" height="8"/>
	<rect x="34" y="109" width="8" height="8"/>
	<rect x="42" y="109" width="8" height="8"/>
	<rect x="50" y="109" width="8" height="8"/>
	<rect x="58" y="109" width="8" height="8"/>
	<rect x="66" y="109" width="8" height="8"/>
	<rect x="98" y="109" width="8" height="8"/>
	<rect x="106" y="109" width="8" height="8"/>
	<rect x="114" y="109" width="8" height="8"/>
	<rect x="122" y="109" width="8" height="8"/>
	<rect x="138" y="109" width="8" height="8"/>
	<rect x="154" y="109" width="8" height="8"/>
	<rect x="178" y="109" width="8" height="8"/>
	<rect x="194" y="109" width="8" height="8"/>
	<rect x="202" y="109" width="8" height="8"/>
	<rect x="210" y="109" width="8" height="8"/>
	<rect x="218" y="109" width="8" height="8"/>
	<rect x="26" y="117" width="8" height="8"/>
	<rect x="34" y="117" width="8" height="8"/>
	<rect x="50" y="117" width="8" height="8"/>
	<rect x="58" y="117" width="8" height="8"/>
	<rect x="74" y="117" width="8" height="8"/>
	<rect x="82" y="117" width="8" height="8"/>
	<rect x="90" y="117" width="8" height="8"/>
	<rect x="98" y="117" width="8" height="8"/>
	<rect x="114" y="117" width="8" height="8"/>
	<rect x="122" y="117" width="8" height="8"/>
	<rect x="146" y="117" width="8" height="8"/>
	<rect x="170" y="117" width="8" height="8"/>
	<rect x="218" y="117" width="8" height="8"/>
	<rect x="26" y="125" width="8" height="8"/>
	<rect x="42" y="125" width="8" height="8"/>
	<rect x="50" y="125" width="8" height="8"/>
	<rect x="58" y="125" width="8" height="8"/>
	<rect x="66" y="125" width="8" height="8"/>
	<rect x="98" y="125" width="8" height="8"/>
	<rect x="130" y="125" width="8" height="8"/>
	<rect x="146" y="125" width="8" height="8"/>
	<rect x="154" y="125" width="8" height="8"/>
	<rect x="162" y="125" width="8" height="8"/>
	<rect x="186" y="125" width="8" height="8"/>
	<rect x="210" y="125" width="8" height="8"/>
	<rect x="26" y="133" width="8" height="8"/>
	<rect x="34" y="133" width="8" height="8"/>
	<rect x="42" y="133" width="8" height="8"/>
	<rect x="50" y="133" width="8" height="8"/>
	<rect x="58" y="133" width="8" height="8"/>
	<rect x="66" y="133" width="8" height="8"/>
	<rect x="74" y="133" width="8" height="8"/>
	<rect x="90" y="133" width="8" height="8"/>
	<rect x="114" y="133" width="8" height="8"/>
	<rect x="122" y="133" width="8" height="8"/>
	<rect x="138" y="133" width="8" height="8"/>
	<rect x="146" y="133" width="8" height="8"/>
	<rect x="162" y="133" width="8" height="8"/>
	<rect x="170" y="133" width="8" height="8"/>
	<rect x="186" y="133" width="8" height="8"/>
	<rect x="194" y="133" width="8" height="8"/>
	<rect x="202" y="133" width="8" height="8"/>
	<rect x="210" y="133" width="8" height="8"/>
	<rect x="218" y="133" width="8" height="8"/>
	<rect x="26" y="141" width="8" height="8"/>
	<rect x="50" y="141" width="8" height="8"/>
	<rect x="66" y="141" width="8" height="8"/>
	<rect x="82" y="141" width="8" height="8"/>
	<rect x="114" y="141" width="8" height="8"/>
	<rect x="138" y="141" width="8" height="8"/>
	<rect x="162" y="141" width="8" height="8"/>
	<rect x="178" y="141" width="8" height="8"/>
	<rect x="194" y="141" width="8" height="8"/>
	<rect x="202" y="141" width="8" height="8"/>
	<rect x="218" y="141" width="8" height="8"/>
	<rect x="26" y="149" width="8" height="8"/>
	<rect x="42" y="149" width="8" height="8"/>
	<rect x="50" y="149" width="8" height="8"/>
	<rect x="66" y="149" width="8" height="8"/>
	<rect x="74" y="149" width="8" height="8"/>
	<rect x="122" y="149" width="8" height="8"/>
	<rect x="130" y="149" width="8" height="8"/>
	<rect x="138" y="149" width="8" height="8"/>
	<rect x="146" y="149" width="8" height="8"/>
	<rect x="154" y="149" width="8" height="8"/>
	<rect x="162" y="149" width="8" height="8"/>
	<rect x="170" y="149" width="8" height="8"/>
	<rect x="178" y="149" width="8" height="8"/>
	<rect x="186" y="149" width="8" height="8"/>
	<rect x="202" y="149" width="8" height="8"/>
	<rect x="210" y="149" width="8" height="8"/>
	<rect x="90" y="157" width="8" height="8"/>
	<rect x="106" y="157" width="8" height="8"/>
	<rect x="114" y="157" width="8" height="8"/>
	<rect x="122" y="157" width="8" height="8"/>
	<rect x="130" y="157" width="8" height="8"/>
	<rect x="146" y="157" width="8" height="8"/>
	<rect x="154" y="157" width="8" height="8"/>
	<rect x="186" y="157" width="8" height="8"/>
	<rect x="202" y="157" width="8" height="8"/>
	<rect x="210" y="157" width="8" height="8"/>
	<rect x="26" y="165" width="8" height="8"/>
	<rect x="34" y="165" width="8" height="8"/>
	<rect x="42" y="165" width="8" height="8"/>
	<rect x="50" y="165" width="8" height="8"/>
	<rect x="58" y="165" width="8" height="8"/>
	<rect x="66" y="165" width="8" height="8"/>
	<rect x="74" y="165" width="8" height="8"/>
	<rect x="98" y="165" width="8" height="8"/>
	<rect x="106" y="165" width="8" height="8"/>
	<rect x="114" y="165" width="8" height="8"/>
	<rect x="154" y="165" width="8" height="8"/>
	<rect x="170" y="165" width="8" height="8"/>
	<rect x="186" y="165" width="8" height="8"/>
	<rect x="218" y="165" width="8" height="8"/>
	<rect x="26" y="173" width="8" height="8"/>
	<rect x="74" y="173" width="8" height="8"/>
	<rect x="98" y="173" width="8" height="8"/>
	<rect x="106" y="173" width="8" height="8"/>
	<rect x="114" y="173" width="8" height="8"/>
	<rect x="130" y="173" width="8" height="8"/>
	<rect x="138" y="173" width="8" height="8"/>
	<rect x="146" y="173" width="8" height="8"/>
	<rect x="154" y="173" width="8" height="8"/>
	<rect x="186" y="173" width="8" height="8"/>
	<rect x="210" y="173" width="8" height="8"/>
	<rect x="218" y="173" width="8" height="8"/>
	<rect x="26" y="181" width="8" height="8"/>
	<rect x="42" y="181" width="8" height="8"/>
	<rect x="50" y="181" width="8" height="8"/>
	<rect x="58" y="181" width="8" height="8"/>
	<rect x="74" y="181" width="8" height="8"/>
	<rect x="90" y="181" width="8" height="8"/>
	<rect x="106" y="181" width="8" height="8"/>
	<rect x="114" y="181" width="8" height="8"/>
	<rect x="122" y="181" width="8" height="8"/>
	<rect x="138" y="181" width="8" height="8"/>
	<rect x="146" y="181" width="8" height="8"/>
	<rect x="154" y="181" width="8" height="8"/>
	<rect x="162" y="181" width="8" height="8"/>
	<rect x="170" y="181" width="8" height="8"/>
	<rect x="178" y="181" width="8" height="8"/>
	<rect x="186" y="181" width="8" height="8"/>
	<rect x="26" y="189" width="8" height="8"/>
	<rect x="42" y="189" width="8" height="8"/>
	<rect x="50" y="189" width="8" height="8"/>
	<rect x="58" y="189" width="8" height="8"/>
	<rect x="74" y="189" width="8" height="8"/>
	<rect x="90" y="189" width="8" height="8"/>
	<rect x="98" y="189" width="8" height="8"/>
	<rect x="114" y="189" width="8" height="8"/>
	<rect x="122" y="189" width="8" height="8"/>
	<rect x="130" y="189" width="8" height="8"/>
	<rect x="138" y="189" width="8" height="8"/>
	<rect x="170" y="189" width="8" height="8"/>
	<rect x="210" y="189" width="8" height="8"/>
	<rect x="218" y="189" width="8" height="8"/>
	<rect x="26" y="197" width="8" height="8"/>
	<rect x="42" y="197" width="8" height="8"/>
	<rect x="50" y="197" width="8" height="8"/>
	<rect x="58" y="197" width="8" height="8"/>
	<rect x="74" y="197" width="8" height="8"/>
	<rect x="98" y="197" width="8" height="8"/>
	<rect x="114" y="197" width="8" height="8"/>
	<rect x="146" y="197" width="8" height="8"/>
	<rect x="154" y="197" width="8" height="8"/>
	<rect x="162" y="197" width="8" height="8"/>
	<rect x="186" y="197" width="8" height="8"/>
	<rect x="194" y="197" width="8" height="8"/>
	<rect x="202" y="197" width="8" height="8"/>
	<rect x="210" y="197" width="8" height="8"/>
	<rect x="218" y="197" width="8" height="8"/>
	<rect x="26" y="205" width="8" height="8"/>
	<rect x="74" y="205" width="8" height="8"/>
	<rect x="90" y="205" width="8" height="8"/>
	<rect x="106" y="205" width="8" height="8"/>
	<rect x="114" y="205" width="8" height="8"/>
	<rect x="122" y="205" width="8" height="8"/>
	<rect x="138" y="205" width="8" height="8"/>
	<rect x="178" y="205" width="8" height="8"/>
	<rect x="186" y="205" width="8" height="8"/>
	<rect x="202" y="205" width="8" height="8"/>
	<rect x="210" y="205" width="8" height="8"/>
	<rect x="218" y="205" width="8" height="8"/>
	<rect x="26" y="213" width="8" height="8"/>
	<rect x="34" y="213" width="8" height="8"/>
	<rect x="42" y="213" width="8" height="8"/>
	<rect x="50" y="213" width="8" height="8"/>
	<rect x="58" y="213" width="8" height="8"/>
	<rect x="66" y="213" width="8" height="8"/>
	<rect x="74" y="213" width="8" height="8"/>
	<rect x="90" y="213" width="8" height="8"/>
	<rect x="98" y="213" width="8" height="8"/>
	<rect x="106" y="213" width="8" height="8"/>
	<rect x="154" y="213" width="8" height="8"/>
	<rect x="162" y="213" width="8" height="8"/>
	<rect x="194" y="213" width="8" height="8"/>
	<rect x="218" y="213" width="8" height="8"/>
</g>
</svg>
