<?xml version="1.0" encoding="utf-8"?>
<!-- Generator: Adobe Illustrator 24.2.1, SVG Export Plug-In . SVG Version: 6.00 Build 0)  -->
<svg version="1.1" xmlns="http://www.w3.org/2000/svg" xmlns:xlink="http://www.w3.org/1999/xlink" x="0px" y="0px"
	 viewBox="0 0 503.49 477.96" style="enable-background:new 0 0 503.49 477.96;" xml:space="preserve">
<style type="text/css">
	.st0{display:none;}
	.st1{display:inline;}
	.st2{fill:#999999;}
	.st3{fill:#006666;}
	.st4{fill:#FFFFFF;}
	.st5{fill:#FF9933;}
</style>
<g id="Layer_10" class="st0">
	<g class="st1">
		<path class="st2" d="M486.03,91.31c-13.2-17.03-51.11-12.09-100.37,9.51c32.46-10.84,56.57-11.27,66.44,1.18
			c23.68,29.88-43.51,122.57-150.07,207.02c-50.36,39.91-100.5,70.83-141.88,89.2c46.34-13.92,110.08-49.1,174.11-98.74
			C442.28,215.74,510.23,122.53,486.03,91.31z"/>
		<path class="st2" d="M94.83,394.6c-24.2-31.22,43.75-124.42,151.78-208.17c49.1-38.06,98.02-67.62,139.06-85.61
			c-45.43,15.17-107.24,50.73-169.39,99.99C109.7,285.26,42.51,377.94,66.19,407.82c12.49,15.76,47.77,10.9,93.95-9.6
			C128.31,407.78,104.68,407.31,94.83,394.6z"/>
	</g>
</g>
<g id="Layer_9">
	<circle class="st3" cx="241.29" cy="187.33" r="170.33"/>
	
		<ellipse transform="matrix(0.7903 -0.6127 0.6127 0.7903 -87.962 228.8884)" class="st2" cx="290.43" cy="242.96" rx="247.5" ry="71.52"/>
	<path class="st4" d="M66.19,407.82c23.68,29.89,129.27-14.35,235.83-98.8C408.59,224.57,475.78,131.89,452.1,102
		c-23.68-29.88-129.26,14.35-235.83,98.81C109.7,285.26,42.51,377.94,66.19,407.82z"/>
	<circle class="st5" cx="241.46" cy="54.5" r="14.5"/>
	<circle class="st4" cx="197.73" cy="100.81" r="14.5"/>
	<path class="st3" d="M299.49,273c0,8.01-6.49,14.5-14.5,14.5c-8.01,0-14.5-6.49-14.5-14.5c0-8.01,6.49-14.5,14.5-14.5
		C293,258.5,299.49,264.99,299.49,273z"/>
	<path class="st3" d="M212.23,273c0,8.01-6.49,14.5-14.5,14.5c-8.01,0-14.5-6.49-14.5-14.5c0-8.01,6.49-14.5,14.5-14.5
		C205.74,258.5,212.23,264.99,212.23,273z"/>
	<circle class="st3" cx="284.99" cy="187" r="14.5"/>
	<circle class="st4" cx="284.99" cy="100.81" r="14.5"/>
	<circle class="st4" cx="197.73" cy="187" r="14.5"/>
	<circle class="st5" cx="112.37" cy="187" r="14.5"/>
	<circle class="st5" cx="369.98" cy="187" r="14.5"/>
	<circle class="st4" cx="154.55" cy="142" r="14.5"/>
	<circle class="st4" cx="154.55" cy="231.77" r="14.5"/>
	<circle class="st5" cx="241.46" cy="317.75" r="14.5"/>
	<circle class="st4" cx="241.46" cy="145.71" r="14.5"/>
	<circle class="st3" cx="241.46" cy="230" r="14.5"/>
	<circle class="st3" cx="329.12" cy="144.94" r="14.5"/>
	<circle class="st3" cx="329.12" cy="232" r="14.5"/>
</g>
<g id="_x31_">
	<polygon class="st3" points="450.96,465.5 450.96,399 420.21,399 388.46,448.5 356.46,399 325.46,399 325.46,466.25 347.46,466.25 
		347.46,417.25 378.46,466.25 397.71,466.25 428.46,417.75 428.46,466.25 450.96,466.25 	"/>
	<polygon class="st3" points="320.46,399 320.46,410.5 278.96,410.5 278.96,427 318.96,427 318.96,439.5 278.29,439.5 
		278.29,454.33 320.46,454.33 320.46,466.25 254.96,466.25 254.96,399 	"/>
	<path class="st3" d="M235.96,399h-55v67.25h22.17v-25.08l32.83-0.83c0,0,20-3.17,20.33-20C256.63,403.5,235.96,399,235.96,399z
		 M226.96,428.67h-23.33V411h23.17c0,0,9.17,1.87,9.17,8.83S226.96,428.67,226.96,428.67z"/>
	<path class="st3" d="M176.46,399v50.17c0,0-4,18.83-34,18.83s-21.33,0-21.33,0s-24.67,0.5-31.83-18.83v-33.83l22.17-1.33l0.5,33
		c0,0,3.5,8.83,20.92,8.83s19.75-8.5,19.75-8.5v-46.17l5.5-2.17H176.46z"/>
	<path class="st3" d="M83.79,415.67v37.5c0,0-4.83,14.84-32.33,14.83c-27.5,0-34.61-15.17-34.61-15.17v-2.5l22.44,0.06
		c0,0,2.17,6.11,11.84,5.94c9.66-0.17,11-5.83,11-5.83l0-47.59C62.12,402.92,65.21,413.5,83.79,415.67z"/>
</g>
</svg>
