<?xml version="1.0" encoding="utf-8"?>
<!-- Generator: Adobe Illustrator 24.2.1, SVG Export Plug-In . SVG Version: 6.00 Build 0)  -->
<svg version="1.1" id="Layer_1" xmlns="http://www.w3.org/2000/svg" xmlns:xlink="http://www.w3.org/1999/xlink" x="0px" y="0px"
	 viewBox="0 0 141.73 141.73" style="enable-background:new 0 0 141.73 141.73;" xml:space="preserve">
<style type="text/css">
	.st0{display:none;}
	.st1{display:inline;fill:#B56464;}
	.st2{display:inline;fill:#FFFFFF;}
	.st3{display:inline;fill:#272626;}
	.st4{fill:#272626;}
	.st5{display:none;fill:#272626;}
	.st6{display:inline;fill:#FFFEFE;}
</style>
<g id="Layer_2" class="st0">
	<rect class="st1" width="141.56" height="141.56"/>
</g>
<g class="st0">
	<path class="st2" d="M21.73,26.55C7.28,41,7.28,64.44,21.73,78.89c13.42,13.42,34.57,14.38,49.1,2.89l10.86,10.86l6.13-6.14
		L76.97,75.65c11.49-14.53,10.53-35.68-2.89-49.1C59.63,12.09,36.19,12.09,21.73,26.55z M70.22,75.04
		c-12.32,12.33-32.31,12.33-44.63,0c-12.32-12.33-12.32-32.31,0-44.63c12.33-12.32,32.31-12.32,44.63,0
		C82.55,42.73,82.55,62.71,70.22,75.04z"/>
	<path class="st2" d="M26.97,31.79c-11.54,11.54-11.54,30.33,0,41.87c11.54,11.54,30.32,11.54,41.87,0
		c11.54-11.54,11.54-30.32,0-41.87C57.3,20.24,38.52,20.24,26.97,31.79z M67.59,72.41c-10.86,10.86-28.52,10.86-39.37,0
		c-10.86-10.86-10.86-28.52,0-39.37c10.86-10.86,28.52-10.86,39.37,0C78.45,43.89,78.45,61.55,67.59,72.41z"/>
	<path class="st2" d="M93.49,83.78L78.97,98.3c-1.81,1.81-1.81,4.75,0,6.56c1.81,1.81,4.75,1.81,6.56,0l14.52-14.52
		c1.81-1.81,1.81-4.75,0-6.56C98.24,81.97,95.3,81.97,93.49,83.78z"/>
	<path class="st2" d="M105.53,123.07c3.52,3.52,9.22,3.52,12.73,0c3.51-3.51,3.51-9.21,0-12.73l-17.51-17.5l-12.73,12.73
		L105.53,123.07z"/>
</g>
<g class="st0">
	<path class="st2" d="M54.37,56.36c-13.19,0-23.87,10.68-23.87,23.86c0,13.19,10.69,23.87,23.87,23.87
		c13.19,0,23.86-10.68,23.86-23.87C78.23,67.04,67.56,56.36,54.37,56.36z M54.37,97.33c-9.45,0-17.11-7.66-17.11-17.11
		c0-9.45,7.66-17.11,17.11-17.11c9.45,0,17.1,7.66,17.1,17.11C71.47,89.67,63.82,97.33,54.37,97.33z"/>
	<path class="st2" d="M95.08,67.89l3.3-7.19l-4.71-8.16l-7.65-0.72c-0.81-0.91-1.66-1.78-2.55-2.61l-0.74-7.89l-8.17-4.71
		l-6.96,3.19c-1.16-0.38-2.35-0.71-3.54-0.99l-4.58-6.45h-9.43L45.6,38.6c-1.2,0.25-2.39,0.56-3.56,0.9l-7.19-3.29l-8.16,4.71
		l-0.72,7.65c-0.9,0.81-1.78,1.66-2.6,2.55l-7.9,0.74l-4.72,8.17L13.93,67c-0.38,1.16-0.7,2.34-0.99,3.54L6.5,75.13v9.43l6.24,4.44
		c0.25,1.2,0.55,2.4,0.91,3.56l-3.29,7.2l4.72,8.16l7.65,0.72c0.81,0.9,1.66,1.77,2.54,2.6l0.75,7.89l8.16,4.72l6.97-3.18
		c1.16,0.38,2.34,0.71,3.54,0.99l4.58,6.44h9.44l4.43-6.24c1.21-0.26,2.39-0.55,3.56-0.91l7.19,3.3l8.16-4.72l0.72-7.64
		c0.91-0.81,1.78-1.66,2.61-2.55l7.9-0.75l4.71-8.17l-3.19-6.96c0.38-1.17,0.71-2.34,0.99-3.54l6.45-4.58v-9.44l-6.25-4.43
		C95.74,70.25,95.43,69.06,95.08,67.89z M54.37,110.7c-16.84,0-30.48-13.64-30.48-30.48c0-16.84,13.64-30.48,30.48-30.48
		c16.84,0,30.48,13.64,30.48,30.48C84.85,97.06,71.21,110.7,54.37,110.7z"/>
	<path class="st2" d="M105.92,19.46c-6.7,0.76-11.53,6.81-10.77,13.52c0.76,6.71,6.81,11.53,13.51,10.77
		c6.72-0.76,11.54-6.81,10.78-13.52C118.69,23.52,112.64,18.7,105.92,19.46z M108.28,40.32c-4.8,0.54-9.15-2.91-9.69-7.72
		c-0.54-4.81,2.92-9.15,7.72-9.69c4.81-0.54,9.15,2.91,9.69,7.72C116.55,35.43,113.09,39.77,108.28,40.32z"/>
	<path class="st2" d="M131.96,31.44l-0.54-4.79l-3.43-1.9c-0.2-0.6-0.43-1.18-0.67-1.76l1.26-3.85l-2.86-3.88l-3.94,0.07
		c-0.46-0.42-0.95-0.81-1.45-1.18l-0.84-3.97l-4.43-1.93l-3.36,2.02c-0.61-0.12-1.23-0.22-1.85-0.3l-2.71-3.02l-4.79,0.54l-1.9,3.44
		c-0.61,0.19-1.19,0.43-1.76,0.67l-3.85-1.27l-3.88,2.87l0.07,3.93c-0.42,0.47-0.81,0.95-1.19,1.46l-3.97,0.83l-1.92,4.43l2.02,3.37
		c-0.13,0.61-0.23,1.24-0.3,1.86l-3.01,2.71l0.54,4.8l3.44,1.9c0.2,0.6,0.42,1.19,0.67,1.76l-1.27,3.85l2.87,3.88l3.93-0.07
		c0.46,0.41,0.95,0.81,1.45,1.18l0.84,3.97l4.43,1.93l3.36-2.02c0.61,0.13,1.23,0.23,1.86,0.3l2.7,3.01l4.8-0.54l1.9-3.43
		c0.6-0.19,1.18-0.42,1.75-0.67l3.85,1.27l3.88-2.87l-0.07-3.93c0.42-0.47,0.81-0.95,1.19-1.45l3.97-0.83l1.93-4.43l-2.03-3.36
		c0.13-0.62,0.23-1.24,0.3-1.86L131.96,31.44z M109.05,47.12c-8.56,0.97-16.3-5.19-17.27-13.76c-0.97-8.57,5.2-16.3,13.76-17.27
		c8.57-0.97,16.31,5.19,17.27,13.76C123.79,38.42,117.63,46.15,109.05,47.12z"/>
</g>
<g id="XMLID_9424_" class="st0">
	<path id="XMLID_9428_" class="st3" d="M119.33,139.6c0.72,0,1.45-0.24,2.06-0.73l13.3-10.8c0.67-0.55,1.1-1.34,1.19-2.2
		c0.09-0.86-0.17-1.72-0.72-2.4l-33.4-41.11c5.43-7.12,8.83-15.61,9.78-24.75c1.36-13.1-2.47-25.93-10.77-36.15
		C83.64,0.36,52.54-2.86,31.45,14.27c-10.22,8.3-16.59,20.08-17.95,33.18c-1.35,13.09,2.47,25.93,10.77,36.15
		s20.08,16.59,33.18,17.95c1.73,0.18,3.45,0.27,5.17,0.27c7.22,0,14.26-1.58,20.72-4.6l33.45,41.18
		C117.44,139.19,118.38,139.6,119.33,139.6z M58.12,95.04c-11.36-1.17-21.58-6.7-28.77-15.56c-7.2-8.86-10.52-20-9.34-31.35
		c1.18-11.36,6.7-21.58,15.57-28.77c7.91-6.42,17.44-9.55,26.91-9.55c12.44,0,24.78,5.39,33.22,15.77c7.2,8.86,10.51,20,9.34,31.35
		c-1.18,11.35-6.7,21.57-15.57,28.77C80.61,92.9,69.47,96.22,58.12,95.04z M93.6,90.78c1.34-1.08,2.6-2.23,3.8-3.43l30.63,37.7
		l-8.22,6.68L89.15,93.99C90.68,93,92.17,91.94,93.6,90.78z"/>
	<path id="XMLID_9425_" class="st3" d="M90.53,29.78c-6.08-7.48-14.7-12.15-24.28-13.14c-9.59-0.99-18.98,1.81-26.46,7.88
		s-12.15,14.7-13.14,24.29c-0.99,9.58,1.81,18.98,7.88,26.46c7.12,8.77,17.54,13.32,28.04,13.32c7.99,0,16.04-2.64,22.71-8.06
		C100.71,67.99,103.07,45.22,90.53,29.78z M81.15,75.45c-12.64,10.27-31.28,8.34-41.55-4.3c-4.98-6.12-7.27-13.82-6.45-21.67
		c0.81-7.85,4.63-14.91,10.76-19.88c5.32-4.32,11.81-6.61,18.57-6.61c1.03,0,2.06,0.05,3.1,0.16c7.85,0.81,14.91,4.63,19.88,10.76
		C95.72,46.54,93.79,65.18,81.15,75.45z"/>
</g>
<g id="XMLID_37_">
	<path id="XMLID_41_" class="st4" d="M119.33,139.6c0.72,0,1.45-0.24,2.06-0.73l13.3-10.8c0.67-0.55,1.1-1.34,1.19-2.2
		c0.09-0.86-0.17-1.72-0.72-2.4l-33.4-41.11c5.43-7.12,8.83-15.61,9.78-24.75c1.36-13.1-2.47-25.93-10.77-36.15
		C83.64,0.36,52.54-2.86,31.45,14.27c-10.22,8.3-16.59,20.08-17.95,33.18c-1.35,13.09,2.47,25.93,10.77,36.15
		s20.08,16.59,33.18,17.95c1.73,0.18,3.45,0.27,5.17,0.27c7.22,0,14.26-1.58,20.72-4.6l33.45,41.18
		C117.44,139.19,118.38,139.6,119.33,139.6z M58.12,95.04c-11.36-1.17-21.58-6.7-28.77-15.56c-7.2-8.86-10.52-20-9.34-31.35
		c1.18-11.36,6.7-21.58,15.57-28.77c7.91-6.42,17.44-9.55,26.91-9.55c12.44,0,24.78,5.39,33.22,15.77c7.2,8.86,10.51,20,9.34,31.35
		c-1.18,11.35-6.7,21.57-15.57,28.77C80.61,92.9,69.47,96.22,58.12,95.04z M93.6,90.78c1.34-1.08,2.6-2.23,3.8-3.43l30.63,37.7
		l-8.22,6.68L89.15,93.99C90.68,93,92.17,91.94,93.6,90.78z"/>
	<path id="XMLID_38_" class="st5" d="M90.53,29.78c-6.08-7.48-14.7-12.15-24.28-13.14c-9.59-0.99-18.98,1.81-26.46,7.88
		s-12.15,14.7-13.14,24.29c-0.99,9.58,1.81,18.98,7.88,26.46c7.12,8.77,17.54,13.32,28.04,13.32c7.99,0,16.04-2.64,22.71-8.06
		C100.71,67.99,103.07,45.22,90.53,29.78z M81.15,75.45c-12.64,10.27-31.28,8.34-41.55-4.3c-4.98-6.12-7.27-13.82-6.45-21.67
		c0.81-7.85,4.63-14.91,10.76-19.88c5.32-4.32,11.81-6.61,18.57-6.61c1.03,0,2.06,0.05,3.1,0.16c7.85,0.81,14.91,4.63,19.88,10.76
		C95.72,46.54,93.79,65.18,81.15,75.45z"/>
	<path class="st4" d="M63.13,4.26c-26.45,0-47.9,21.44-47.9,47.9s21.44,47.9,47.9,47.9s47.9-21.44,47.9-47.9S89.59,4.26,63.13,4.26z
		 M62.1,86.73c-19.69,0-35.66-15.96-35.66-35.66S42.41,15.41,62.1,15.41s35.66,15.96,35.66,35.66S81.79,86.73,62.1,86.73z"/>
	
		<rect x="83.39" y="101.13" transform="matrix(0.6112 0.7915 -0.7915 0.6112 129.2537 -43.8561)" class="st4" width="51.75" height="17.02"/>
</g>
<g id="XMLID_1_" class="st0">
	<path id="XMLID_5_" class="st6" d="M119.33,139.6c0.72,0,1.45-0.24,2.06-0.73l13.3-10.8c0.67-0.55,1.1-1.34,1.19-2.2
		c0.09-0.86-0.17-1.72-0.72-2.4l-33.4-41.11c5.43-7.12,8.83-15.61,9.78-24.75c1.36-13.1-2.47-25.93-10.77-36.15
		C83.64,0.36,52.54-2.86,31.45,14.27c-10.22,8.3-16.59,20.08-17.95,33.18c-1.35,13.09,2.47,25.93,10.77,36.15
		s20.08,16.59,33.18,17.95c1.73,0.18,3.45,0.27,5.17,0.27c7.22,0,14.26-1.58,20.72-4.6l33.45,41.18
		C117.44,139.19,118.38,139.6,119.33,139.6z M58.12,95.04c-11.36-1.17-21.58-6.7-28.77-15.56c-7.2-8.86-10.52-20-9.34-31.35
		c1.18-11.36,6.7-21.58,15.57-28.77c7.91-6.42,17.44-9.55,26.91-9.55c12.44,0,24.78,5.39,33.22,15.77c7.2,8.86,10.51,20,9.34,31.35
		c-1.18,11.35-6.7,21.57-15.57,28.77C80.61,92.9,69.47,96.22,58.12,95.04z M93.6,90.78c1.34-1.08,2.6-2.23,3.8-3.43l30.63,37.7
		l-8.22,6.68L89.15,93.99C90.68,93,92.17,91.94,93.6,90.78z"/>
	<path id="XMLID_2_" class="st6" d="M90.53,29.78c-6.08-7.48-14.7-12.15-24.28-13.14c-9.59-0.99-18.98,1.81-26.46,7.88
		s-12.15,14.7-13.14,24.29c-0.99,9.58,1.81,18.98,7.88,26.46c7.12,8.77,17.54,13.32,28.04,13.32c7.99,0,16.04-2.64,22.71-8.06
		C100.71,67.99,103.07,45.22,90.53,29.78z M81.15,75.45c-12.64,10.27-31.28,8.34-41.55-4.3c-4.98-6.12-7.27-13.82-6.45-21.67
		c0.81-7.85,4.63-14.91,10.76-19.88c5.32-4.32,11.81-6.61,18.57-6.61c1.03,0,2.06,0.05,3.1,0.16c7.85,0.81,14.91,4.63,19.88,10.76
		C95.72,46.54,93.79,65.18,81.15,75.45z"/>
</g>
<g id="XMLID_11742_" class="st0">
	<path id="XMLID_11743_" class="st3" d="M38.05,124.23c3.63,2.66,14.86,9.71,31.8,9.71c1.15,0,2.33-0.04,3.53-0.1
		c33.65-1.04,60.72-28.73,60.72-62.63c0-24.43-14.05-45.62-34.49-55.96c-0.11-0.07-0.22-0.15-0.35-0.2
		c-0.08-0.04-0.16-0.07-0.25-0.1c-5.95-2.93-12.44-4.94-19.27-5.85c-26-4.1-41.99,9.08-42.94,9.89
		c-7.1,4.72-13.18,10.85-17.85,17.98c-0.16,0.15-0.31,0.31-0.44,0.5c-0.16,0.23-1.13,1.67-2.35,4.17
		c-4.74,8.82-7.43,18.88-7.43,29.57C8.74,93.51,20.46,113.12,38.05,124.23z M71.42,14.67c1.67,0,3.31,0.09,4.94,0.23
		c5.34,0.6,11.19,1.98,17.49,4.52l-12.4,26.09c-4.24-1.31-12.49-2.63-21.69,2.55L43.08,22.32C51.42,17.47,61.1,14.67,71.42,14.67z
		 M71.42,51.54c10.84,0,19.66,8.82,19.66,19.67c0,10.84-8.82,19.66-19.66,19.66c-3.01,0-5.86-0.7-8.42-1.92
		c-0.8-0.44-1.6-0.93-2.42-1.5c-0.21-0.15-0.45-0.26-0.69-0.35c-4.92-3.58-8.14-9.36-8.14-15.9C51.76,60.36,60.58,51.54,71.42,51.54
		z M121.44,94.18l-25.29-12.9c1.73-4.13,3.65-11.98-1.08-21.09l23.91-16.65C122.73,49.85,131.11,68.22,121.44,94.18z M71.42,127.74
		c-10.36,0-20.06-2.81-28.42-7.69L59.76,94.2c0.09,0.05,0.19,0.09,0.29,0.14c9.15,5.06,17.43,4,21.63,2.87l12.17,25.62
		c-7.93,3.2-15.12,4.6-21.48,4.89C72.06,127.72,71.74,127.74,71.42,127.74z M22.06,43.68l23.71,16.51
		c-4.77,9.18-2.79,17.08-1.05,21.18L21.6,94.08c-9.49-25.31-2.93-43.52,0.37-50.25C22,43.78,22.03,43.73,22.06,43.68z M49.95,85.51
		c1.32,1.97,2.91,3.74,4.7,5.28l-16.79,25.89c-5.96-4.41-11.03-9.97-14.88-16.34L49.95,85.51z M99.45,120.27L86.18,92.35
		c2.39-1.67,4.47-3.74,6.18-6.11l27.53,14.04C114.9,108.57,107.84,115.46,99.45,120.27z M91.58,55.13c-1.56-1.96-3.4-3.68-5.46-5.11
		L99.39,22.1c6.82,3.9,12.77,9.18,17.43,15.45L91.58,55.13z M37.94,25.69l16.78,25.88c-1.55,1.32-2.94,2.83-4.14,4.48L25.36,38.49
		C28.85,33.59,33.1,29.26,37.94,25.69z"/>
</g>
<g id="XMLID_21_" class="st0">
	<path id="XMLID_22_" class="st3" d="M38.05,124.23c3.63,2.66,14.86,9.71,31.8,9.71c1.15,0,2.33-0.04,3.53-0.1
		c33.65-1.04,60.72-28.73,60.72-62.63c0-24.43-14.05-45.62-34.49-55.96c-0.11-0.07-0.22-0.15-0.35-0.2
		c-0.08-0.04-0.16-0.07-0.25-0.1c-5.95-2.93-12.44-4.94-19.27-5.85c-26-4.1-41.99,9.08-42.94,9.89
		c-7.1,4.72-13.18,10.85-17.85,17.98c-0.16,0.15-0.31,0.31-0.44,0.5c-0.16,0.23-1.13,1.67-2.35,4.17
		c-4.74,8.82-7.43,18.88-7.43,29.57C8.74,93.51,20.46,113.12,38.05,124.23z M71.42,14.67c1.67,0,3.31,0.09,4.94,0.23
		c5.34,0.6,11.19,1.98,17.49,4.52L81.42,46.63c-4.24-1.31-12.45-3.75-21.65,1.43L43.08,22.32C51.42,17.47,61.1,14.67,71.42,14.67z
		 M71.42,51.54c10.84,0,19.66,8.82,19.66,19.67c0,10.84-8.82,19.66-19.66,19.66c-3.01,0-5.86-0.7-8.42-1.92
		c-0.8-0.44-1.6-0.93-2.42-1.5c-0.21-0.15-0.45-0.26-0.69-0.35c-4.92-3.58-8.14-9.36-8.14-15.9C51.76,60.36,60.58,51.54,71.42,51.54
		z M121.44,94.18l-25.29-12.9c1.73-4.13,3.65-11.98-1.08-21.09l23.91-16.65C122.73,49.85,131.11,68.22,121.44,94.18z M71.42,127.74
		c-10.36,0-20.06-2.81-28.42-7.69L59.76,94.2c0.09,0.05,0.19,0.09,0.29,0.14c9.15,5.06,17.68,2.62,21.88,1.48l11.93,27.01
		c-7.93,3.2-15.12,4.6-21.48,4.89C72.06,127.72,71.74,127.74,71.42,127.74z M22.06,43.68l23.71,16.51
		c-4.77,9.18-2.79,17.08-1.05,21.18L21.6,94.08c-9.49-25.31-2.93-43.52,0.37-50.25C22,43.78,22.03,43.73,22.06,43.68z"/>
</g>
<g id="XMLID_23_" class="st0">
	<path id="XMLID_24_" class="st2" d="M38.05,124.23c3.63,2.66,14.86,9.71,31.8,9.71c1.15,0,2.33-0.04,3.53-0.1
		c33.65-1.04,60.72-28.73,60.72-62.63c0-24.43-14.05-45.62-34.49-55.96c-0.11-0.07-0.22-0.15-0.35-0.2
		c-0.08-0.04-0.16-0.07-0.25-0.1c-5.95-2.93-12.44-4.94-19.27-5.85c-26-4.1-41.99,9.08-42.94,9.89
		c-7.1,4.72-13.18,10.85-17.85,17.98c-0.16,0.15-0.31,0.31-0.44,0.5c-0.16,0.23-1.13,1.67-2.35,4.17
		c-4.74,8.82-7.43,18.88-7.43,29.57C8.74,93.51,20.46,113.12,38.05,124.23z M71.42,14.67c1.67,0,3.31,0.09,4.94,0.23
		c5.34,0.6,11.19,1.98,17.49,4.52L81.42,46.63c-4.24-1.31-12.45-3.75-21.65,1.43L43.08,22.32C51.42,17.47,61.1,14.67,71.42,14.67z
		 M71.42,51.54c10.84,0,19.66,8.82,19.66,19.67c0,10.84-8.82,19.66-19.66,19.66c-3.01,0-5.86-0.7-8.42-1.92
		c-0.8-0.44-1.6-0.93-2.42-1.5c-0.21-0.15-0.45-0.26-0.69-0.35c-4.92-3.58-8.14-9.36-8.14-15.9C51.76,60.36,60.58,51.54,71.42,51.54
		z M121.44,94.18l-25.29-12.9c1.73-4.13,3.65-11.98-1.08-21.09l23.91-16.65C122.73,49.85,131.11,68.22,121.44,94.18z M71.42,127.74
		c-10.36,0-20.06-2.81-28.42-7.69L59.76,94.2c0.09,0.05,0.19,0.09,0.29,0.14c9.15,5.06,17.68,2.62,21.88,1.48l11.93,27.01
		c-7.93,3.2-15.12,4.6-21.48,4.89C72.06,127.72,71.74,127.74,71.42,127.74z M22.06,43.68l23.71,16.51
		c-4.77,9.18-2.79,17.08-1.05,21.18L21.6,94.08c-9.49-25.31-2.93-43.52,0.37-50.25C22,43.78,22.03,43.73,22.06,43.68z"/>
</g>
<g id="XMLID_9_" class="st0">
	<path id="XMLID_10_" class="st2" d="M38.05,124.23c3.63,2.66,14.86,9.71,31.8,9.71c1.15,0,2.33-0.04,3.53-0.1
		c33.65-1.04,60.72-28.73,60.72-62.63c0-24.43-14.05-45.62-34.49-55.96c-0.11-0.07-0.22-0.15-0.35-0.2
		c-0.08-0.04-0.16-0.07-0.25-0.1c-5.95-2.93-12.44-4.94-19.27-5.85c-26-4.1-41.99,9.08-42.94,9.89
		c-7.1,4.72-13.18,10.85-17.85,17.98c-0.16,0.15-0.31,0.31-0.44,0.5c-0.16,0.23-1.13,1.67-2.35,4.17
		c-4.74,8.82-7.43,18.88-7.43,29.57C8.74,93.51,20.46,113.12,38.05,124.23z M71.42,14.67c1.67,0,3.31,0.09,4.94,0.23
		c5.34,0.6,11.19,1.98,17.49,4.52l-12.4,26.09c-4.24-1.31-12.49-2.63-21.69,2.55L43.08,22.32C51.42,17.47,61.1,14.67,71.42,14.67z
		 M71.42,51.54c10.84,0,19.66,8.82,19.66,19.67c0,10.84-8.82,19.66-19.66,19.66c-3.01,0-5.86-0.7-8.42-1.92
		c-0.8-0.44-1.6-0.93-2.42-1.5c-0.21-0.15-0.45-0.26-0.69-0.35c-4.92-3.58-8.14-9.36-8.14-15.9C51.76,60.36,60.58,51.54,71.42,51.54
		z M121.44,94.18l-25.29-12.9c1.73-4.13,3.65-11.98-1.08-21.09l23.91-16.65C122.73,49.85,131.11,68.22,121.44,94.18z M71.42,127.74
		c-10.36,0-20.06-2.81-28.42-7.69L59.76,94.2c0.09,0.05,0.19,0.09,0.29,0.14c9.15,5.06,17.43,4,21.63,2.87l12.17,25.62
		c-7.93,3.2-15.12,4.6-21.48,4.89C72.06,127.72,71.74,127.74,71.42,127.74z M22.06,43.68l23.71,16.51
		c-4.77,9.18-2.79,17.08-1.05,21.18L21.6,94.08c-9.49-25.31-2.93-43.52,0.37-50.25C22,43.78,22.03,43.73,22.06,43.68z M49.95,85.51
		c1.32,1.97,2.91,3.74,4.7,5.28l-16.79,25.89c-5.96-4.41-11.03-9.97-14.88-16.34L49.95,85.51z M99.45,120.27L86.18,92.35
		c2.39-1.67,4.47-3.74,6.18-6.11l27.53,14.04C114.9,108.57,107.84,115.46,99.45,120.27z M91.58,55.13c-1.56-1.96-3.4-3.68-5.46-5.11
		L99.39,22.1c6.82,3.9,12.77,9.18,17.43,15.45L91.58,55.13z M37.94,25.69l16.78,25.88c-1.55,1.32-2.94,2.83-4.14,4.48L25.36,38.49
		C28.85,33.59,33.1,29.26,37.94,25.69z"/>
</g>
</svg>
